<svg width="32" height="32" viewBox="0 0 32 32" fill="none" xmlns="http://www.w3.org/2000/svg">
<path d="M18.332 0.659205C17.6288 0.233099 16.8222 0.0078125 16 0.0078125C15.1778 0.0078125 14.3712 0.233099 13.668 0.659205L3.168 7.02321C2.50633 7.42413 1.9592 7.98888 1.57943 8.66293C1.19967 9.33697 1.0001 10.0975 1 10.8712V21.1272C1.0001 21.9009 1.19967 22.6614 1.57943 23.3355C1.9592 24.0095 2.50633 24.5743 3.168 24.9752L13.668 31.3392C14.3712 31.7653 15.1778 31.9906 16 31.9906C16.8222 31.9906 17.6288 31.7653 18.332 31.3392L28.832 24.9752C29.4937 24.5743 30.0408 24.0095 30.4206 23.3355C30.8003 22.6614 30.9999 21.9009 31 21.1272V10.8712C30.9999 10.0975 30.8003 9.33697 30.4206 8.66293C30.0408 7.98888 29.4937 7.42413 28.832 7.02321L18.332 0.659205Z" fill="#FED6B8"/>
<path d="M19.3507 9.32362C19.3209 9.52125 19.1937 9.73234 18.9609 9.92184C18.1976 10.539 17.9432 11.0479 17.8782 11.2076C17.8647 11.2428 17.8593 11.2617 17.8593 11.2617H14.1401C14.1401 11.2617 14.1347 11.2428 14.1212 11.2076C14.0562 11.0479 13.8017 10.539 13.0384 9.92184C13.0303 9.91644 13.0249 9.911 13.0195 9.90559C12.1587 9.18556 12.8436 8.21384 14.1401 8.57653C14.2024 8.59278 14.2592 8.60631 14.3107 8.61444C15.0063 8.71731 14.8249 8 15.9997 8C17.2638 8 16.9579 8.82828 17.8593 8.57656C18.1083 8.50619 18.333 8.48725 18.5306 8.5035C19.0963 8.55491 19.4211 8.91491 19.3507 9.32362Z" fill="black"/>
<path d="M21.8458 18.1539C21.8458 21.3832 19.2283 24.0007 15.9991 24.0007C15.16 24.0007 14.3615 23.8247 13.6414 23.5026C12.3097 22.9179 11.2378 21.846 10.6504 20.5143C10.331 19.7916 10.1523 18.9931 10.1523 18.1539C10.1523 15.1088 13.0947 12.7836 13.9987 11.9581C14.0528 11.912 14.1016 11.866 14.1395 11.8281H17.8586C17.8965 11.866 17.9453 11.912 17.9994 11.9581C18.9035 12.7836 21.8458 15.1087 21.8458 18.1539Z" fill="black"/>
<path d="M18.279 11.5887C18.279 11.7673 18.1599 11.9135 18.0002 11.9568C17.9677 11.9677 17.9325 11.9731 17.8973 11.9731H14.1024C14.0672 11.9731 14.032 11.9677 13.9995 11.9568C13.8398 11.9135 13.7207 11.7674 13.7207 11.5887C13.7207 11.3776 13.8912 11.207 14.1024 11.207H17.8973C18.1085 11.207 18.279 11.3776 18.279 11.5887Z" fill="#FED6B8"/>
<path d="M17.7956 19.8971C17.6955 20.0852 17.557 20.2422 17.3828 20.3712C17.2078 20.4991 16.998 20.5946 16.7539 20.6577C16.6473 20.6844 16.5358 20.703 16.4223 20.7185V21.4283H15.5755V20.7324C15.3342 20.7123 15.1037 20.6748 14.8868 20.615C14.5549 20.5242 14.1205 20.1573 14.1205 20.1573C14.0833 20.136 14.0588 20.0978 14.0539 20.0557C14.0483 20.013 14.0629 19.9699 14.0933 19.9398L14.5177 19.5154C14.5636 19.4695 14.6342 19.4612 14.6897 19.4946C14.6897 19.4946 15.0073 19.7707 15.2477 19.8358C15.4885 19.9014 15.7273 19.9346 15.9659 19.9346C16.2662 19.9346 16.5147 19.8816 16.7117 19.7756C16.9091 19.6681 17.0073 19.5036 17.0073 19.2774C17.0073 19.1154 16.9593 18.9868 16.8617 18.8926C16.7647 18.7987 16.6008 18.7402 16.369 18.7144L15.6087 18.6491C15.1585 18.6051 14.8112 18.4796 14.5677 18.2738C14.3229 18.0672 14.2014 17.7539 14.2014 17.3357C14.2014 17.1039 14.2482 16.8975 14.3424 16.716C14.4366 16.5348 14.5643 16.3814 14.7269 16.2565C14.8896 16.1313 15.0792 16.0371 15.2948 15.9755C15.3847 15.9488 15.4795 15.9318 15.5755 15.9163V15.3047H16.4223V15.9036C16.6203 15.9231 16.8084 15.9547 16.9838 16.0031C17.2806 16.0836 17.5929 16.3281 17.5929 16.3281C17.6322 16.3488 17.6586 16.3869 17.6654 16.43C17.6719 16.474 17.6576 16.5174 17.627 16.5493L17.2288 16.9533C17.1864 16.9964 17.1207 17.0075 17.0665 16.9793C17.0665 16.9793 16.8307 16.8117 16.6271 16.7587C16.4236 16.7054 16.2098 16.6782 15.9842 16.6782C15.6901 16.6782 15.4727 16.7348 15.3323 16.8473C15.1913 16.9598 15.1216 17.1073 15.1216 17.2879C15.1216 17.4509 15.1709 17.5761 15.2716 17.6638C15.3713 17.7511 15.5399 17.8081 15.7785 17.8323L16.4443 17.8896C16.9385 17.9327 17.3125 18.0641 17.5656 18.2828C17.8194 18.5015 17.9458 18.8213 17.9458 19.2396C17.9458 19.4912 17.8953 19.7093 17.7956 19.8971Z" fill="white"/>
</svg>
